# xmcd CD database file
#
# Track frame offsets:
#	150
#	21715
#	38620
#	63167
#	81745
#	104502
#	140512
#	163822
#	193440
#	212892
#
# Disc length: 3098 seconds
#
# Revision: 0
# Processed by: cddbd v1.5.2PL0 Copyright (c) Steve Scherf et al.
# Submitted via: CDex 1.51
#
DISCID=9d0c180a
DTITLE=Mezcla - Rocason!
DYEAR=1997
DGENRE=Salsa
TTITLE0=Rocason
TTITLE1=Mujeres de Arena
TTITLE2=Lo Que me Amarra aqui
TTITLE3=Dicen Que...
TTITLE4=Cuando se vaya la Luz
TTITLE5=Por Mas que Quema
TTITLE6=Somos Tu y Yo
TTITLE7=Tropi-Collage
TTITLE8=What kepps us Apart
TTITLE9=De alla por le Lejania
EXTD=YEAR: 1997
EXTT0=
EXTT1=
EXTT2=
EXTT3=
EXTT4=
EXTT5=
EXTT6=
EXTT7=
EXTT8=
EXTT9=
PLAYORDER=
